<svg width="350" height="350" viewBox="0 0 350 350" fill="none" xmlns="http://www.w3.org/2000/svg">
<path d="M2.89646 208.948C2.69173 207.934 2.487 206.92 2.36098 205.476C2.81626 202.625 2.87207 200.256 1.31433 198.15C1.23821 197.9 1.16209 197.649 1.23353 197.186C1.38111 196.974 1.65137 196.943 1.91041 196.955C15.3401 196.978 28.5107 197.002 41.6813 196.996C53.5249 196.992 65.3685 196.955 77.1721 197.153C76.3215 199.322 75.8089 201.308 76.291 203.441C77.5801 209.144 84.0568 212.046 89.5803 209.036C92.4803 207.455 94.8167 207.243 97.2121 209.583C97.2784 209.648 97.3672 209.69 97.448 209.739C102.264 212.643 108.687 210.066 110.223 204.647C110.904 202.245 110.601 199.955 109.533 197.767C109.019 196.714 109.049 195.988 110.298 195.71C111.218 196.274 112.029 196.916 112.854 196.934C117.354 197.037 121.857 196.989 126.36 196.987C127.429 196.987 128.433 196.828 129.186 195.837C132.322 197.297 135.234 196.787 138.258 195.992C139.414 197.372 140.83 196.987 142.109 196.989C156.331 197.013 170.552 197 184.773 197.002C239.003 197.01 293.233 197.02 347.47 197.219C347.622 198.019 347.768 198.629 347.914 199.239C347.848 200.055 347.782 200.871 347.545 201.987C347.371 202.601 347.368 202.914 347.365 203.228C347.333 203.676 347.3 204.125 347.05 204.911C346.006 206.767 345.493 208.326 346.211 210.043C346.169 210.499 346.127 210.954 345.86 211.737C344.868 213.199 344.456 214.389 345.074 215.736C345.055 216.011 345.036 216.285 344.801 216.844C344.199 217.64 343.813 218.151 343.164 218.664C295.489 218.66 248.078 218.652 200.667 218.652C194.03 218.652 187.393 218.692 180.727 218.455C180.753 216.121 181.051 214.016 180.821 211.972C180.054 205.178 173.323 201.994 167.534 205.574C166.825 206.012 166.117 206.452 165.243 206.995C164.074 206.076 162.986 205.19 161.866 204.344C157.901 201.351 153.633 201.556 150.335 204.88C147.097 208.144 146.776 213.089 149.578 216.792C150.09 217.469 150.662 218.102 151.005 218.832C148.352 218.82 145.901 218.659 143.451 218.655C129.706 218.632 115.961 218.65 102.217 218.65C69.9877 218.651 37.7587 218.651 5.50015 218.426C5.00754 215.653 4.50842 213.112 4.10268 210.557C3.97393 209.746 3.7974 209.113 2.89646 208.948Z" fill="#854AAF"/>
<path d="M345.288 135.619C345.415 136.032 345.542 136.444 345.589 137.265C345.524 138.414 345.511 139.158 345.559 139.897C345.849 144.367 347.431 148.7 346.694 153.242C323.634 153.225 300.846 153.221 278.057 153.204C275.978 153.202 273.899 153.117 271.848 152.866C272.017 152.312 272.173 151.968 272.299 151.613C273.779 147.423 272.92 144.041 269.827 141.388C267.424 139.326 262.807 138.378 259.308 140.924C258.853 141.255 258.349 141.522 257.851 141.79C256.493 142.519 255.134 142.493 253.813 141.704C253.167 141.318 252.561 140.865 251.93 140.453C248.138 137.975 244.017 138.48 240.964 141.807C240.459 142.358 240.002 142.953 239.425 143.703C239.149 144.24 238.971 144.602 238.829 145.027C238.864 145.091 238.758 145.191 238.688 145.407C238.684 147.397 238.752 149.173 238.792 150.908C238.766 150.868 238.846 150.815 238.828 151.047C238.566 153.299 237.025 153.178 235.605 153.183C229.848 153.199 224.091 153.191 218.084 153.211C216.666 153.175 215.498 153.121 214.183 153.021C213.554 153.061 213.073 153.146 212.617 153.199C212.642 153.166 212.71 153.213 212.439 153.216C174.072 153.209 135.976 153.194 97.8797 153.194C65.9434 153.194 34.0071 153.214 2.06879 152.973C2.6439 148.216 3.24194 143.712 3.78225 139.202C3.90327 138.192 3.82222 137.157 3.8342 136.134C3.85642 135.882 3.87865 135.63 4.11328 135.094C4.91234 133.732 5.49903 132.653 6.35084 131.579C59.1274 131.572 111.639 131.558 164.15 131.559C165.566 131.559 166.983 131.72 168.424 132.051C168.382 134.093 168.157 135.9 168.278 137.683C168.733 144.342 175.501 148.034 181.377 144.887C182.203 144.445 182.995 143.939 183.967 143.365C185.112 144.257 186.185 145.162 187.329 145.968C190.314 148.07 193.518 148.295 196.718 146.622C199.951 144.932 201.552 142.089 201.303 138.459C201.19 136.807 200.477 135.195 200.089 133.337C200.448 132.022 201.266 131.65 202.291 131.604C203.142 131.567 203.995 131.555 204.847 131.555C249.172 131.558 293.497 131.568 337.822 131.556C339.994 131.556 342.166 131.369 344.339 131.27C344.339 131.27 344.393 131.299 344.349 131.478C344.439 132.028 344.574 132.399 344.709 132.77C344.838 133.183 344.966 133.597 345.041 134.323C345.088 134.963 345.188 135.291 345.288 135.619Z" fill="#9A56D0"/>
<path d="M27.684 78.037C27.9549 77.5434 28.2259 77.0498 28.7482 76.324C29.1312 75.8967 29.2629 75.7015 29.3946 75.5064C29.3946 75.5064 29.4032 75.3423 29.6359 75.221C30.2887 74.4024 30.7088 73.7051 31.1288 73.0077C31.1288 73.0077 31.1151 72.9759 31.2829 72.874C31.6967 72.3647 31.9428 71.9573 32.1889 71.5498C32.1889 71.5498 32.2303 71.3662 32.4725 71.2425C33.0955 70.5459 33.4763 69.973 33.8572 69.4001C33.8572 69.4001 33.8549 69.4538 34.0334 69.4168C36.0076 68.5377 38.191 68.1377 38.7754 65.6038C39.7059 65.5923 40.3693 65.5837 41.0327 65.5837C125.185 65.5896 209.338 65.5944 293.49 65.6099C296.141 65.6104 298.792 65.7091 301.442 65.787C302.667 65.8231 303.893 66.0066 305.114 65.9692C307.288 65.9025 309.458 65.7186 311.755 65.724C313.93 68.6779 315.931 71.5295 318.06 74.2822C318.711 75.1238 319.713 75.6937 320.555 76.388C320.555 76.388 320.724 76.5317 320.788 76.8518C321.797 79.717 322.71 82.2823 325.22 83.7941C325.368 83.9827 325.516 84.1713 325.736 84.716C326.246 85.7683 326.685 86.4645 327.123 87.1606C327.123 87.1606 327.065 87.141 327.028 87.3098C326.959 87.6103 326.927 87.7419 326.634 87.8575C325.236 87.8173 324.099 87.772 322.962 87.7719C291.97 87.7686 260.977 87.7631 229.985 87.7759C223.351 87.7786 216.717 87.8501 210.116 87.6264C210.115 85.8572 210.352 84.2828 209.991 82.8598C209.157 79.5671 206.894 77.4051 203.62 76.6125C200.234 75.7928 197.174 76.7324 194.85 79.3714C191.91 82.7103 189.107 86.1696 186.137 89.4012C185.473 88.1923 184.553 87.8105 183.437 87.7937C182.395 87.778 181.353 87.7628 180.311 87.7629C128.115 87.7694 75.9192 87.7777 23.7836 87.5974C24.3504 86.6126 24.7405 85.7032 25.3846 85.0408C27.3122 83.058 28.0313 80.7372 27.684 78.037Z" fill="#8549B0"/>
<path d="M32.2372 277.808C32.0444 277.591 31.8516 277.374 31.6016 276.809C31.3 275.202 30.7511 274.19 29.4098 273.818C29.4098 273.818 29.4122 273.813 29.3966 273.622C28.8431 272.794 28.3052 272.157 27.7673 271.521C27.7673 271.521 27.6273 271.392 27.5889 271.099C27.0311 270.103 26.5116 269.401 25.9922 268.699C25.9922 268.699 25.9984 268.691 25.981 268.513C25.6084 267.882 25.2532 267.429 24.898 266.977C24.898 266.977 24.7629 266.859 24.7164 266.595C24.3825 265.974 24.0951 265.618 23.8077 265.261C23.8077 265.261 23.6692 265.096 23.7113 264.779C24.0541 263.233 25.0427 262.858 26.1016 262.733C27.5074 262.565 28.9301 262.469 30.3457 262.467C48.0615 262.448 65.7773 262.451 83.4932 262.45C100.546 262.448 117.598 262.445 134.651 262.455C136.237 262.456 137.923 262.162 139.175 263.855C139.023 266.648 139.578 268.95 141.4 270.865C145.117 274.771 151.171 274.826 154.962 270.748C157.584 267.929 159.914 264.839 162.599 261.97C164.326 262.196 165.829 262.429 167.333 262.431C188.186 262.458 209.039 262.456 229.892 262.457C260.13 262.46 290.367 262.457 320.604 262.474C321.978 262.474 323.352 262.646 324.901 262.749C324.832 264.233 324.78 265.345 324.728 266.457C324.248 267.314 323.768 268.171 323.036 269.253C322.696 269.663 322.607 269.847 322.519 270.031C319.295 274.601 316.072 279.17 312.452 283.873C305.534 284.199 299.011 284.547 292.488 284.558C258.933 284.616 225.378 284.617 191.823 284.569C184.059 284.557 176.296 284.271 168.532 284.127C167.682 284.112 166.83 284.218 165.979 284.244C163.049 284.331 160.117 284.484 157.187 284.465C154.162 284.447 151.138 284.149 148.114 284.171C144.52 284.197 140.929 284.541 137.335 284.56C126.732 284.616 116.129 284.58 105.526 284.582C93.0139 284.583 80.5016 284.621 67.9897 284.566C64.3961 284.55 60.8027 284.12 57.2108 284.142C51.8165 284.175 46.4226 284.415 41.0309 284.625C40.0088 284.665 38.9974 284.98 37.9811 285.167C37.4219 284.57 36.8628 283.972 36.1965 283.045C35.7802 282.398 35.4711 282.081 35.162 281.765C34.6307 281.093 34.0995 280.421 33.4771 279.401C33.0031 278.638 32.6201 278.223 32.2372 277.808Z" fill="#9857CF"/>
<path d="M38.0201 285.353C38.9974 284.98 40.0088 284.665 41.0309 284.625C46.4226 284.415 51.8165 284.175 57.2108 284.142C60.8027 284.12 64.3961 284.55 67.9897 284.566C80.5016 284.621 93.0138 284.583 105.526 284.582C116.129 284.58 126.732 284.616 137.335 284.56C140.929 284.541 144.52 284.198 148.114 284.171C151.138 284.149 154.162 284.447 157.187 284.466C160.117 284.484 163.049 284.331 165.979 284.244C166.83 284.219 167.682 284.112 168.532 284.127C176.296 284.271 184.059 284.558 191.823 284.569C225.378 284.617 258.933 284.616 292.488 284.558C299.011 284.547 305.534 284.199 312.31 284.008C307.345 291.096 301.173 297.309 294.803 303.338C293.366 304.698 291.853 305.977 290.053 307.177C288.167 305.733 286.282 306.267 284.542 306.266C235.633 306.236 186.725 306.244 137.816 306.246C113.077 306.247 88.3385 306.237 63.5998 306.281C62.0294 306.284 60.4597 306.724 58.8897 306.96C55.36 303.647 51.8303 300.335 48.1749 296.656C46.3347 293.067 44.0637 290.369 40.8062 288.6C39.8905 287.579 38.9748 286.559 38.0201 285.353Z" fill="#8348AE"/>
<path d="M311.629 65.5836C309.458 65.7185 307.288 65.9024 305.114 65.9691C303.893 66.0065 302.667 65.8229 301.442 65.7869C298.792 65.709 296.141 65.6103 293.49 65.6098C209.338 65.5942 125.185 65.5894 41.0327 65.5836C40.3693 65.5836 39.7059 65.5921 38.7635 65.4538C39.2181 63.8226 39.9516 62.3343 40.6851 60.846C40.7122 60.6907 40.7853 60.5614 41.1487 60.3209C41.5745 59.9122 41.7561 59.6406 41.9376 59.369C41.9376 59.369 41.9332 59.3241 42.1428 59.2742C44.0668 58.3491 45.4125 57.1608 45.8024 55.161C46.4271 54.475 47.0519 53.789 48.0255 52.986C49.8912 51.6223 51.3933 50.3571 52.9283 49.1331C55.129 47.3782 57.3537 45.6534 59.8346 43.9242C62.3749 43.9488 64.6486 43.9788 66.9223 43.979C133.526 43.9828 200.13 43.9874 266.733 43.9797C274.3 43.9788 281.867 43.9059 289.65 43.9045C290.728 44.0979 291.591 44.2529 292.453 44.408C293.087 44.9292 293.721 45.4504 294.494 46.3091C297.675 49.7818 300.711 52.9242 303.776 56.0383C304.013 56.2798 304.453 56.3228 304.799 56.458C306.445 58.2517 308.091 60.0454 309.839 62.2051C310.503 63.5753 311.066 64.5795 311.629 65.5836Z" fill="#9B58D0"/>
<path d="M58.9866 307.122C60.4597 306.723 62.0294 306.284 63.5999 306.281C88.3385 306.236 113.077 306.247 137.816 306.246C186.725 306.244 235.633 306.236 284.542 306.266C286.283 306.267 288.167 305.733 289.867 307.227C289.43 307.944 288.857 308.494 287.978 309.186C287.525 309.49 287.377 309.652 287.23 309.814C282.269 314.537 276.502 318.18 270.829 321.932C267.522 324.12 264.039 326.044 260.158 328.08C258.642 328.014 257.602 327.904 256.562 327.904C202.161 327.894 147.76 327.891 93.3588 327.914C92.1506 327.914 90.9424 328.219 89.7341 328.382C86.0615 326.268 82.3091 324.279 78.7333 322.012C71.8052 317.619 65.2463 312.71 58.9866 307.122Z" fill="#9A56D0"/>
<path d="M289.433 43.8664C281.867 43.906 274.3 43.9789 266.733 43.9798C200.13 43.9875 133.526 43.9829 66.9223 43.9791C64.6486 43.9789 62.3748 43.9488 59.8899 43.7505C60.0304 42.7885 60.3822 42.0088 60.7339 41.2291C60.9411 41.008 61.1483 40.7868 61.7113 40.4856C62.5953 40.2152 63.2037 40.1344 63.639 39.8166C66.6756 37.6003 69.693 35.3566 72.6719 33.0636C73.1619 32.6864 73.4325 32.024 73.8045 31.4934C73.8045 31.4934 73.8121 31.4494 74.0368 31.4249C76.6561 30.7485 78.5825 29.4207 80.0304 27.4026C80.2505 27.2227 80.4705 27.0427 80.9942 26.8003C81.6387 26.4818 81.9794 26.2259 82.3202 25.97C82.3202 25.97 82.5338 25.7868 82.8766 25.7336C84.6032 25.5273 85.7734 25.0539 86.3044 23.6224C86.3044 23.6224 86.4907 23.4619 86.8344 23.425C88.6087 23.0316 90.0394 22.6751 91.7341 22.3145C94.0838 22.3147 96.1695 22.3229 98.2552 22.323C151.155 22.3231 204.055 22.3225 257.186 22.3283C258.564 22.6738 259.714 23 260.856 23.3554C262.088 23.7392 263.313 24.1502 264.54 24.5493C264.54 24.5493 264.781 24.5884 264.944 24.837C266.91 27.3338 269.236 28.6696 272.087 29.0897C272.087 29.0897 272.254 29.1013 272.413 29.3129C272.987 29.76 273.402 29.9954 273.817 30.2309C273.817 30.2309 273.972 30.2296 274.109 30.4378C274.734 30.9189 275.222 31.1918 275.71 31.4648C275.71 31.4648 275.745 31.4537 275.813 31.6532C276.738 33.736 278.28 34.6264 280.264 34.8772C280.264 34.8772 280.299 34.8658 280.366 35.0665C281.649 37.6742 283.481 39.1961 286.278 39.3272C287.068 39.8694 287.858 40.4117 288.803 41.2891C289.116 42.3717 289.275 43.1191 289.433 43.8664Z" fill="#864BAF"/>
<path d="M2.0709 153.225C34.0072 153.214 65.9434 153.194 97.8797 153.194C135.976 153.194 174.072 153.209 212.327 153.38C209.321 154.867 207.351 157.325 207.074 160.629C206.806 163.808 205.768 164.267 202.924 164.449C195.085 164.951 187.24 165.417 179.391 165.71C171.161 166.017 162.913 165.91 154.692 166.346C145.426 166.838 136.174 167.831 127.165 170.139C120.486 171.85 113.939 174.075 107.165 175.938C105.79 174.827 104.4 174.835 102.946 174.965C100.874 175.151 98.7937 175.337 96.7166 175.343C85.2491 175.378 73.7815 175.35 62.3139 175.358C41.5588 175.373 20.8036 175.399 0.0484924 175.42C0.0593617 172.727 0.0702484 170.034 0.278571 166.931C1.2432 164.561 1.1273 162.594 0.520405 160.623C0.54223 159.812 0.564056 159.001 0.79238 157.817C1.35621 156.038 1.71356 154.631 2.0709 153.225Z" fill="#8549B0"/>
<path d="M347.463 197.03C293.233 197.02 239.003 197.01 184.773 197.002C170.552 197 156.331 197.014 142.109 196.989C140.83 196.987 139.414 197.372 138.364 195.842C141.551 193.36 142.608 190.123 142.763 186.322C143.755 186.069 144.641 185.722 145.552 185.631C149.883 185.194 154.216 184.618 158.56 184.479C166.886 184.213 175.22 184.233 183.55 184.091C192.931 183.931 202.267 183.167 211.555 181.837C221.433 180.424 230.971 177.701 240.572 174.477C243.603 174.828 246.421 175.32 249.24 175.333C265.518 175.405 281.797 175.373 298.076 175.36C314.922 175.346 331.769 175.313 348.682 175.456C348.933 175.932 349.117 176.238 349.301 176.545C349.327 177.137 349.353 177.729 349.219 178.743C348.475 181.5 348.359 183.834 349.061 186.167C349.012 187.325 348.964 188.483 348.724 190.02C348.511 191.651 348.489 192.902 348.467 194.154C348.434 194.751 348.401 195.348 348.176 196.213C347.809 196.664 347.636 196.847 347.463 197.03Z" fill="#9956CF"/>
<path d="M180.756 218.713C187.393 218.692 194.03 218.652 200.667 218.652C248.078 218.652 295.489 218.66 343.177 218.9C342.957 221.481 342.436 223.823 341.978 226.177C341.808 227.052 341.786 227.955 341.696 228.846C341.482 229.66 341.267 230.473 340.807 231.589C339.89 234.028 339.218 236.164 338.546 238.301C338.546 238.301 338.544 238.442 338.351 238.624C337.896 239.528 337.636 240.249 337.375 240.97C337.375 240.97 337.288 240.865 337.062 240.872C334.753 240.84 332.671 240.765 330.589 240.765C286.744 240.767 242.9 240.779 199.055 240.786C192.142 240.787 185.23 240.777 178.317 240.768C176.989 240.766 175.629 240.849 174.693 239.442C176.195 234.785 177.755 230.346 179.129 225.851C179.841 223.523 180.224 221.096 180.756 218.713Z" fill="#9956CE"/>
<path d="M168.399 131.806C166.983 131.72 165.566 131.559 164.15 131.559C111.639 131.558 59.1274 131.572 6.40338 131.383C7.63029 128.422 8.041 125.532 7.2869 122.496C7.31121 122.226 7.33554 121.957 7.54039 121.442C7.77382 120.872 7.82671 120.549 7.87959 120.226C7.97806 119.746 8.07653 119.267 8.37458 118.488C8.68844 117.989 8.80269 117.79 8.91694 117.59C8.96731 117.053 9.01769 116.516 9.3032 115.717C9.73955 114.768 9.94079 114.081 10.142 113.393C10.4347 112.536 10.7273 111.679 11.2953 110.604C12.01 110.058 12.4493 109.73 13.1568 109.398C65.4176 109.402 117.41 109.412 169.403 109.415C171.296 109.415 173.188 109.338 175.052 109.513C171.966 116.616 170.233 123.897 168.588 131.287C168.472 131.457 168.454 131.569 168.485 131.736C168.492 131.783 168.399 131.806 168.399 131.806Z" fill="#8549B0"/>
<path d="M174.674 239.638C175.629 240.848 176.989 240.766 178.317 240.768C185.23 240.777 192.142 240.787 199.055 240.786C242.9 240.779 286.744 240.767 330.589 240.765C332.671 240.765 334.753 240.84 337.112 240.919C337.388 240.958 337.379 241.197 337.145 241.401C335.76 242.827 334.595 244.035 333.468 245.279C333.229 245.543 333.03 245.92 332.982 246.269C332.679 248.483 332.424 250.704 332.152 252.923C332.152 252.923 332.133 253.153 331.913 253.361C331.472 254.151 331.251 254.733 331.029 255.315C329.04 258.962 327.051 262.61 324.895 266.357C324.78 265.345 324.832 264.233 324.901 262.749C323.352 262.646 321.978 262.474 320.604 262.473C290.367 262.457 260.13 262.46 229.892 262.457C209.039 262.456 188.186 262.458 167.333 262.43C165.829 262.428 164.326 262.196 162.675 261.775C167.112 254.497 171.343 247.318 174.674 239.638Z" fill="#8449AF"/>
<path d="M175.081 109.298C173.188 109.339 171.296 109.415 169.403 109.415C117.41 109.412 65.4176 109.402 13.1695 109.174C13.8903 106.455 14.8551 103.951 15.8484 101.459C16.2932 100.342 16.9787 99.2758 16.3495 98.0096C16.9556 96.7471 17.5617 95.4846 18.4633 93.985C19.4245 92.8551 20.0503 91.9287 20.7658 91.0779C21.7148 89.9496 22.734 88.8803 23.723 87.7857C75.9192 87.7777 128.115 87.7695 180.311 87.7629C181.353 87.7628 182.395 87.778 183.437 87.7937C184.553 87.8105 185.473 88.1923 186.102 89.5708C183.177 95.0479 180.17 100.173 177.192 105.316C176.44 106.615 175.782 107.969 175.081 109.298Z" fill="#9956CF"/>
<path d="M344.345 131.065C342.166 131.369 339.994 131.555 337.822 131.556C293.497 131.568 249.172 131.558 204.847 131.555C203.995 131.555 203.142 131.567 202.291 131.604C201.266 131.649 200.448 132.022 199.923 133.224C199.024 132.683 198.336 132.035 197.667 131.368C195.322 129.035 192.967 126.711 190.652 124.349C190.009 123.693 189.299 123.045 189.664 121.893C191.063 117.474 192.911 113.283 195.709 109.196C196.644 110.046 197.416 110.699 198.133 111.408C203.039 116.259 207.928 121.128 212.837 125.977C214.322 127.445 215.868 128.816 218.031 129.249C221.913 130.025 225.317 128.542 227.477 125.071C229.534 121.767 229.365 117.713 226.883 114.761C225.429 113.03 223.773 111.469 222.426 109.735C223.679 109.555 224.714 109.402 225.749 109.401C234.845 109.387 243.941 109.408 253.037 109.404C281.083 109.394 309.129 109.377 337.276 109.371C337.511 109.388 337.645 109.397 337.779 109.406C337.904 109.652 338.029 109.899 338.181 110.424C338.223 110.85 338.279 110.982 338.376 111.096C338.376 111.096 338.468 111.198 338.455 111.509C339.194 115.689 339.959 119.556 340.689 123.429C340.956 124.845 341.796 125.777 342.997 126.456C343.112 126.705 343.228 126.954 343.342 127.482C343.342 127.908 343.388 128.04 343.477 128.159C343.769 129.06 344.06 129.96 344.345 131.065Z" fill="#8549B0"/>
<path d="M5.52978 218.651C37.7587 218.651 69.9877 218.651 102.217 218.65C115.961 218.65 129.706 218.632 143.451 218.655C145.901 218.659 148.352 218.82 151.168 218.904C153.823 221.154 156.064 223.462 158.423 225.643C159.586 226.718 159.761 227.815 159.191 229.187C158.069 231.889 157.017 234.621 155.836 237.296C155.279 238.556 154.49 239.714 153.623 241.24C152.548 240.244 151.717 239.515 150.93 238.74C145.675 233.565 140.405 228.404 135.188 223.19C131.511 219.514 125.473 220.621 122.849 223.315C119.497 226.756 119.344 232.295 122.651 235.894C123.414 236.724 124.225 237.509 125.125 238.441C125.358 238.755 125.479 238.942 125.556 239.083C125.511 239.036 125.598 238.939 125.489 239.123C124.827 239.636 124.305 240.171 123.717 240.256C121.854 240.527 119.966 240.775 118.087 240.776C84.3142 240.795 50.5411 240.777 16.7679 240.766C16.1059 240.765 15.4438 240.747 14.7817 240.738C13.4528 240.718 12.421 240.204 11.7265 239.021C11.3953 238.457 10.9463 237.962 10.5506 237.435C10.3255 236.908 10.1003 236.38 9.87462 235.434C9.29174 230.85 8.10405 226.881 6.01922 223.206C5.89374 222.919 5.76827 222.632 5.68219 222.116C5.74308 221.711 5.68309 221.572 5.5416 221.469C5.35783 220.836 5.17404 220.202 5.0994 219.294C5.32433 218.904 5.43141 218.781 5.52978 218.651Z" fill="#9956CE"/>
<path d="M10.553 237.655C10.9463 237.962 11.3953 238.457 11.7265 239.021C12.421 240.204 13.4529 240.718 14.7817 240.738C15.4438 240.747 16.1059 240.766 16.768 240.766C50.5411 240.777 84.3142 240.796 118.087 240.776C119.966 240.775 121.854 240.527 123.717 240.257C124.305 240.171 124.827 239.636 125.664 239.215C128.981 242.119 132.009 245.118 135.046 248.108C137.003 250.035 139.018 251.905 140.922 253.883C142.963 256.004 142.909 256.292 141.524 258.784C140.653 260.351 139.933 262.002 139.145 263.615C137.923 262.162 136.237 262.456 134.651 262.455C117.598 262.445 100.546 262.448 83.4932 262.45C65.7773 262.451 48.0615 262.448 30.3457 262.467C28.9301 262.469 27.5074 262.565 26.1016 262.733C25.0427 262.858 24.0541 263.233 23.6888 264.674C21.6867 261.434 19.5509 258.075 17.8577 254.506C15.2635 249.038 12.9741 243.426 10.553 237.655Z" fill="#8449AF"/>
<path d="M89.8521 328.54C90.9424 328.219 92.1505 327.914 93.3588 327.914C147.76 327.891 202.161 327.895 256.562 327.904C257.602 327.904 258.642 328.015 259.973 328.134C255.878 330.415 251.578 332.826 247.093 334.821C227.592 343.495 207.159 348.337 185.848 349.649C158.732 351.318 132.589 347.03 107.409 336.968C101.447 334.585 95.7754 331.474 89.8521 328.54Z" fill="#8348AE"/>
<path d="M337.175 109.363C309.129 109.377 281.083 109.394 253.037 109.405C243.941 109.408 234.845 109.387 225.749 109.401C224.714 109.403 223.679 109.556 222.269 109.659C217.969 105.756 214.043 101.834 210.119 97.908C209.455 97.2427 208.775 96.5888 208.15 95.8872C206.492 94.0257 206.508 93.8144 207.806 91.7666C208.608 90.5017 209.327 89.184 210.083 87.8901C216.717 87.8503 223.351 87.7788 229.985 87.7761C260.977 87.7633 291.97 87.7688 322.962 87.7721C324.099 87.7722 325.236 87.8175 326.671 88.0492C327.85 89.6105 328.731 90.9644 329.612 92.3182C329.682 92.3865 329.752 92.4548 329.85 92.8785C330.47 95.031 331.076 96.8192 332.779 97.9297C332.779 97.9297 332.69 97.9716 332.726 98.1589C333.662 100.13 334.562 101.913 335.461 103.696C335.461 103.696 335.579 103.883 335.583 104.192C335.935 105.179 336.284 105.858 336.633 106.536C336.752 106.661 336.835 106.806 336.918 107.279C337.059 107.805 337.164 108.023 337.269 108.24C337.269 108.24 337.378 108.375 337.322 108.664C337.236 109.089 337.206 109.226 337.175 109.363Z" fill="#9956CF"/>
<path d="M256.955 22.3219C204.055 22.3224 151.155 22.3231 98.2552 22.3229C96.1695 22.3229 94.0839 22.3147 91.8002 22.1499C92.0983 21.3144 92.5945 20.6394 93.0906 19.9643C93.3472 19.802 93.6037 19.6397 94.1844 19.4241C94.7915 19.1793 95.0744 18.9877 95.3574 18.7962C95.6077 18.6348 95.858 18.4735 96.4324 18.2649C97.0449 18.0291 97.3334 17.8405 97.6218 17.6518C97.6218 17.6518 97.6219 17.6914 97.7729 17.662C98.2095 17.4598 98.4951 17.287 98.7807 17.1142C98.7807 17.1142 98.7746 17.1512 98.968 17.1267C100.751 16.3357 102.341 15.5691 103.931 14.8026C103.931 14.8026 103.996 14.7161 104.224 14.6959C104.661 14.5576 104.869 14.4396 105.077 14.3215C105.077 14.3215 105.174 14.2223 105.408 14.1966C105.834 14.065 106.027 13.9592 106.219 13.8533C106.361 13.7338 106.52 13.6455 107.065 13.5801C109.285 13.2848 111.149 13.0242 112.471 11.4675C112.471 11.4675 112.588 11.3587 112.899 11.3737C115.051 10.662 116.892 9.93534 118.732 9.20867C118.859 9.09488 119.006 9.02098 119.478 8.96871C120.001 8.84982 120.219 8.74917 120.438 8.64851C120.578 8.53107 120.737 8.4486 121.221 8.41524C121.944 8.2609 122.359 8.0924 122.775 7.92392C123.013 7.82276 123.25 7.7216 123.847 7.66521C125.596 7.24654 126.986 6.78309 128.376 6.31965C130.148 5.81141 131.921 5.30315 134.008 4.84043C134.649 4.76874 134.974 4.65151 135.299 4.53428C135.539 4.43935 135.779 4.34442 136.309 4.30096C136.924 4.25063 137.25 4.14884 137.575 4.04703C137.981 3.91322 138.386 3.77941 139.077 3.68294C139.54 3.74955 139.682 3.69319 139.789 3.55122C140.425 3.39304 141.062 3.23486 141.987 3.13852C142.605 3.11475 142.934 3.02915 143.263 2.94355C143.857 2.79982 144.451 2.65609 145.368 2.57152C146.019 2.54079 146.348 2.45088 146.677 2.36098C147.273 2.22685 147.87 2.09272 148.819 2.02896C149.667 1.96201 150.163 1.82468 150.659 1.68736C151.254 1.568 151.848 1.44866 152.79 1.41397C153.639 1.38806 154.141 1.27748 154.643 1.16691C155.422 1.03936 156.202 0.911824 157.376 0.874511C158.624 0.842493 159.477 0.720248 160.33 0.598003C161.484 0.467606 162.639 0.337209 164.23 0.311928C165.863 0.298515 167.06 0.179977 168.257 0.0614394C171.669 0.0210877 175.082 -0.0192558 178.946 0.101036C180.981 0.252685 182.564 0.243691 184.147 0.234689C185.49 0.31218 186.833 0.389672 188.548 0.642644C189.794 0.816127 190.668 0.814148 191.542 0.81216C192.733 0.917406 193.924 1.02266 195.453 1.27966C196.277 1.4309 196.763 1.43038 197.25 1.42986C197.669 1.47853 198.089 1.52721 198.802 1.75335C199.611 1.94129 200.125 1.95175 200.639 1.96221C201.245 2.0405 201.851 2.11879 202.822 2.39229C203.797 2.63944 204.408 2.69138 205.018 2.74332C205.359 2.78186 205.699 2.82039 206.293 3.00595C206.863 3.15569 207.179 3.15841 207.495 3.16113C207.742 3.19133 207.989 3.22154 208.472 3.42805C209.056 3.61714 209.404 3.62992 209.752 3.64271C211.116 3.89634 212.479 4.14998 214.122 4.59282C214.746 4.79206 215.09 4.80209 215.435 4.81213C215.914 4.9045 216.392 4.99686 217.134 5.22174C217.398 5.35425 217.6 5.32811 217.6 5.32811C217.6 5.32811 217.665 5.28867 217.843 5.39971C218.25 5.55021 218.479 5.58967 218.708 5.62914C218.881 5.58608 219.049 5.60064 219.494 5.83731C220.166 6.05946 220.555 6.11711 220.945 6.17477C221.125 6.14758 221.299 6.17062 221.675 6.35908C221.883 6.47428 222.092 6.48454 222.092 6.48454C222.437 6.56515 222.781 6.64575 223.33 6.88241C223.535 7.03846 223.768 7.10766 223.768 7.10766L223.999 7.03319C224.249 7.08432 224.499 7.13544 225.038 7.42237C230.601 9.59454 235.873 11.5386 241.155 13.4528C241.58 13.6069 242.079 13.5561 242.544 13.6005C242.544 13.6005 242.681 13.6043 242.871 13.8016C243.828 14.2495 244.596 14.4999 245.364 14.7504C245.364 14.7504 245.514 14.7652 245.71 14.9259C246.133 15.1596 246.361 15.2325 246.588 15.3055C246.588 15.3055 246.696 15.2871 246.857 15.4829C249.19 16.9892 251.296 18.45 253.93 18.7063C253.93 18.7063 254.071 18.7295 254.219 18.9471C255.229 20.2171 256.092 21.2695 256.955 22.3219Z" fill="#9956CE"/>
<path d="M348.615 175.288C331.769 175.313 314.922 175.346 298.076 175.36C281.797 175.373 265.518 175.405 249.24 175.333C246.421 175.32 243.604 174.828 240.768 174.369C243.47 172.882 246.207 171.618 248.907 170.278C257.606 165.96 265.286 160.276 271.82 153.07C273.899 153.117 275.978 153.202 278.057 153.204C300.846 153.221 323.634 153.226 346.79 153.334C347.496 153.733 347.835 154.032 348.174 154.33C348.299 155.133 348.423 155.936 348.444 157.138C348.444 158.362 348.548 159.187 348.652 160.013C348.807 161.945 348.963 163.877 348.999 166.287C348.791 169.606 348.703 172.447 348.615 175.288Z" fill="#8549B0"/>
<path d="M0 175.679C20.8036 175.399 41.5587 175.373 62.3139 175.358C73.7814 175.35 85.2491 175.378 96.7165 175.343C98.7937 175.337 100.874 175.151 102.946 174.965C104.4 174.835 105.79 174.827 107.042 176.079C104.449 177.628 101.777 178.839 99.1755 180.187C90.8799 184.483 83.38 189.839 77.2121 196.933C65.3685 196.955 53.5249 196.992 41.6813 196.996C28.5107 197.001 15.3401 196.978 1.88319 196.736C1.32232 195.325 1.04773 194.145 0.773127 192.965C0.670998 192.004 0.568851 191.044 0.572167 189.644C1.00145 187.566 1.27341 185.933 0.210042 184.431C0.123869 181.6 0.0376952 178.769 0 175.679Z" fill="#9956CF"/>
<path d="M23.7836 87.5976C22.734 88.8805 21.7148 89.9497 20.7659 91.078C20.0503 91.9288 19.4245 92.8552 18.5879 93.8419C19.92 91.1191 21.3648 88.2691 22.9435 85.4954C24.342 83.0381 25.8894 80.6654 27.5275 78.1462C28.0313 80.7373 27.3122 83.0582 25.3846 85.0409C24.7405 85.7034 24.3504 86.6128 23.7836 87.5976Z" fill="#8348AE"/>
<path d="M2.0688 152.973C1.71355 154.631 1.3562 156.038 0.876404 157.588C1.45234 151.848 2.13266 145.963 2.86394 140.084C3.01429 138.876 3.35518 137.691 3.72121 136.314C3.82223 137.157 3.90328 138.191 3.78226 139.202C3.24195 143.712 2.64392 148.216 2.0688 152.973Z" fill="#8449AF"/>
<path d="M311.755 65.7243C311.066 64.5799 310.503 63.5757 309.921 62.3774C311.057 63.5259 312.291 64.8083 313.348 66.2233C315.762 69.4559 318.089 72.7534 320.503 76.2064C319.713 75.6939 318.711 75.1241 318.06 74.2825C315.931 71.5298 313.93 68.6781 311.755 65.7243Z" fill="#8348AE"/>
<path d="M343.004 126.248C341.796 125.777 340.956 124.845 340.689 123.43C339.959 119.556 339.194 115.689 338.428 111.572C339.308 113.78 340.292 116.208 341.072 118.699C341.827 121.112 342.373 123.59 343.004 126.248Z" fill="#8348AE"/>
<path d="M60.5551 41.2854C60.3822 42.0089 60.0304 42.7886 59.6234 43.7421C57.3536 45.6535 55.129 47.3783 52.9283 49.1332C51.3933 50.3572 49.8912 51.6224 48.1748 52.896C50.4452 50.4616 52.8705 47.9533 55.4015 45.5564C56.9772 44.0643 58.7125 42.7408 60.5551 41.2854Z" fill="#8348AE"/>
<path d="M348.21 154.094C347.835 154.031 347.496 153.733 347.061 153.343C347.431 148.7 345.849 144.367 345.559 139.897C345.511 139.158 345.524 138.415 345.586 137.483C346.523 142.814 347.384 148.336 348.21 154.094Z" fill="#8348AE"/>
<path d="M7.17481 122.668C8.04102 125.532 7.63031 128.422 6.13826 131.378C5.49904 132.653 4.91236 133.732 4.18158 134.917C5.04588 130.962 6.05428 126.901 7.17481 122.668Z" fill="#8449AF"/>
<path d="M73.6133 31.5374C73.4324 32.024 73.1619 32.6864 72.6719 33.0636C69.693 35.3566 66.6756 37.6003 63.639 39.8166C63.2036 40.1344 62.5953 40.2152 61.8581 40.4392C65.5736 37.509 69.4979 34.5451 73.6133 31.5374Z" fill="#8348AE"/>
<path d="M332.293 252.783C332.424 250.704 332.679 248.483 332.982 246.269C333.03 245.92 333.229 245.543 333.468 245.279C334.595 244.035 335.76 242.827 337.067 241.492C335.627 245.133 334.03 248.887 332.293 252.783Z" fill="#8348AE"/>
<path d="M242.396 13.4621C242.079 13.5563 241.58 13.607 241.155 13.453C235.873 11.5387 230.601 9.59472 225.199 7.52954C228.453 8.44583 231.858 9.42219 235.208 10.5593C237.592 11.3686 239.903 12.3944 242.396 13.4621Z" fill="#8348AE"/>
<path d="M304.739 56.2775C304.453 56.3231 304.013 56.2801 303.776 56.0386C300.711 52.9245 297.675 49.7821 294.584 46.4622C297.917 49.5505 301.298 52.8236 304.739 56.2775Z" fill="#8348AE"/>
<path d="M40.5161 60.9353C39.9516 62.3346 39.2181 63.8229 38.4965 65.461C38.1909 68.1379 36.0076 68.5379 34.0067 69.4148C35.9832 66.6412 38.1651 63.8327 40.5161 60.9353Z" fill="#8348AE"/>
<path d="M16.2264 98.1726C16.9787 99.2759 16.2932 100.342 15.8484 101.459C14.8551 103.951 13.8903 106.456 12.9013 109.179C12.4494 109.73 12.0101 110.058 11.4194 110.453C12.4672 107.378 13.6542 104.231 14.8728 101.097C15.2376 100.159 15.6907 99.255 16.2264 98.1726Z" fill="#8449AF"/>
<path d="M257.186 22.3283C256.092 21.2695 255.229 20.2171 254.261 19.0046C257.535 20.6464 260.914 22.4482 264.416 24.3997C263.313 24.1502 262.088 23.7392 260.856 23.3554C259.714 23 258.564 22.6738 257.186 22.3283Z" fill="#8348AE"/>
<path d="M40.8706 288.779C44.0637 290.369 46.3347 293.067 48.1006 296.484C45.7463 294.105 43.3406 291.532 40.8706 288.779Z" fill="#8449AF"/>
<path d="M6.00967 223.435C8.10405 226.881 9.29174 230.85 9.84305 235.263C8.54137 231.562 7.27074 227.613 6.00967 223.435Z" fill="#8449AF"/>
<path d="M341.814 228.679C341.786 227.955 341.808 227.052 341.978 226.177C342.436 223.823 342.957 221.481 343.44 218.899C343.813 218.151 344.199 217.64 344.703 217.028C343.859 220.788 342.895 224.65 341.814 228.679Z" fill="#8348AE"/>
<path d="M348.682 175.456C348.703 172.447 348.791 169.606 348.958 166.55C349.177 169.593 349.317 172.85 349.379 176.326C349.117 176.238 348.933 175.932 348.682 175.456Z" fill="#8348AE"/>
<path d="M5.50018 218.426C5.43146 218.782 5.32438 218.904 5.11258 219.095C4.30331 215.918 3.58999 212.664 2.8866 209.179C3.79743 209.113 3.97396 209.746 4.10271 210.557C4.50845 213.112 5.00757 215.653 5.50018 218.426Z" fill="#8449AF"/>
<path d="M271.961 28.9333C269.236 28.6697 266.91 27.3339 265.038 24.9153C267.257 26.0888 269.546 27.4329 271.961 28.9333Z" fill="#8348AE"/>
<path d="M286.166 39.1648C283.481 39.1963 281.649 37.6744 280.367 35.085C282.219 36.2691 284.137 37.6356 286.166 39.1648Z" fill="#8348AE"/>
<path d="M325.181 83.5982C322.71 82.2823 321.797 79.717 320.818 76.9587C322.237 78.9644 323.689 81.1834 325.181 83.5982Z" fill="#8348AE"/>
<path d="M349.135 185.952C348.359 183.833 348.475 181.5 349.173 178.962C349.262 181.084 349.235 183.411 349.135 185.952Z" fill="#8348AE"/>
<path d="M79.8336 27.4475C78.5825 29.4208 76.6561 30.7486 74.0588 31.4289C75.783 30.1356 77.7098 28.8139 79.8336 27.4475Z" fill="#8348AE"/>
<path d="M1.29416 198.381C2.87207 200.256 2.81626 202.625 2.37566 205.255C1.96573 203.179 1.61987 200.896 1.29416 198.381Z" fill="#8449AF"/>
<path d="M92.8833 19.9863C92.5944 20.6396 92.0983 21.3147 91.5361 22.1543C90.0394 22.6754 88.6087 23.0319 86.9551 23.4023C88.7135 22.2802 90.6947 21.1441 92.8833 19.9863Z" fill="#8348AE"/>
<path d="M253.795 18.5602C251.296 18.4502 249.19 16.9893 246.886 15.5291C249.056 16.3908 251.359 17.4023 253.795 18.5602Z" fill="#8348AE"/>
<path d="M45.6248 55.2317C45.4124 57.1608 44.0668 58.3492 42.1652 59.2721C43.1345 57.9806 44.2909 56.6415 45.6248 55.2317Z" fill="#8348AE"/>
<path d="M0.45836 160.845C1.12729 162.594 1.24319 164.561 0.358054 166.677C0.292178 164.911 0.34425 162.989 0.45836 160.845Z" fill="#8449AF"/>
<path d="M338.683 238.15C339.218 236.164 339.89 234.028 340.698 231.77C340.163 233.765 339.492 235.882 338.683 238.15Z" fill="#8348AE"/>
<path d="M329.554 92.1241C328.731 90.9642 327.85 89.6104 326.932 88.065C326.927 87.7419 326.959 87.6103 327.038 87.281C327.889 88.6989 328.693 90.3145 329.554 92.1241Z" fill="#8348AE"/>
<path d="M289.65 43.9048C289.275 43.1192 289.116 42.3718 288.909 41.4382C290.003 42.1916 291.144 43.1312 292.369 44.2395C291.591 44.2532 290.728 44.0981 289.65 43.9048Z" fill="#8348AE"/>
<path d="M280.171 34.716C278.28 34.6264 276.738 33.736 275.814 31.6716C277.191 32.512 278.634 33.5334 280.171 34.716Z" fill="#8348AE"/>
<path d="M332.762 97.723C331.076 96.819 330.47 95.0308 329.869 93.0239C330.821 94.3815 331.783 95.949 332.762 97.723Z" fill="#8348AE"/>
<path d="M335.454 103.488C334.562 101.913 333.662 100.13 332.767 98.1313C333.663 99.7041 334.555 101.492 335.454 103.488Z" fill="#8348AE"/>
<path d="M183.945 0.161921C182.564 0.243684 180.981 0.252678 179.207 0.148994C180.591 0.0539308 182.167 0.0715458 183.945 0.161921Z" fill="#8348AE"/>
<path d="M346.299 209.851C345.493 208.326 346.006 206.767 346.952 205.116C346.843 206.541 346.615 208.1 346.299 209.851Z" fill="#8348AE"/>
<path d="M118.509 9.20361C116.892 9.93544 115.051 10.6621 112.979 11.3705C114.594 10.6343 116.439 9.91635 118.509 9.20361Z" fill="#8348AE"/>
<path d="M0.14801 184.666C1.2734 185.933 1.00144 187.566 0.592784 189.402C0.367324 188.033 0.226665 186.467 0.14801 184.666Z" fill="#8449AF"/>
<path d="M112.252 11.4661C111.149 13.0243 109.285 13.2849 107.199 13.5547C108.654 12.8466 110.343 12.1556 112.252 11.4661Z" fill="#8348AE"/>
<path d="M168.065 0C167.06 0.180134 165.863 0.298671 164.479 0.332573C165.486 0.144765 166.68 0.0415934 168.065 0Z" fill="#8348AE"/>
<path d="M86.119 23.656C85.7733 25.0541 84.6031 25.5274 83.0123 25.6965C83.848 25.0381 84.8908 24.3638 86.119 23.656Z" fill="#8348AE"/>
<path d="M348.543 193.944C348.489 192.902 348.511 191.651 348.653 190.258C348.722 191.323 348.671 192.528 348.543 193.944Z" fill="#8348AE"/>
<path d="M345.165 215.557C344.456 214.39 344.868 213.2 345.746 211.938C345.657 213.001 345.457 214.189 345.165 215.557Z" fill="#8348AE"/>
<path d="M103.714 14.8135C102.341 15.5694 100.751 16.3359 98.9514 17.1182C100.327 16.3639 101.912 15.594 103.714 14.8135Z" fill="#8348AE"/>
<path d="M128.153 6.30762C126.986 6.78334 125.596 7.24679 124.042 7.65078C125.228 7.15934 126.58 6.72734 128.153 6.30762Z" fill="#8348AE"/>
<path d="M0.717468 193.187C1.04773 194.145 1.32233 195.325 1.62415 196.724C1.65138 196.943 1.38112 196.974 1.24578 196.988C0.960899 195.804 0.811351 194.607 0.717468 193.187Z" fill="#8449AF"/>
<path d="M29.4485 274.005C30.7511 274.189 31.3 275.202 31.5587 276.667C30.8778 275.98 30.1825 275.087 29.4485 274.005Z" fill="#8449AF"/>
<path d="M348.701 159.815C348.548 159.187 348.444 158.362 348.411 157.381C348.571 158.024 348.661 158.821 348.701 159.815Z" fill="#8348AE"/>
<path d="M160.126 0.546875C159.477 0.720376 158.624 0.842621 157.614 0.886741C158.279 0.704289 159.101 0.599954 160.126 0.546875Z" fill="#8348AE"/>
<path d="M347.47 197.219C347.636 196.847 347.809 196.664 348.093 196.423C348.156 197.193 348.107 198.021 347.986 199.044C347.768 198.629 347.622 198.019 347.47 197.219Z" fill="#8348AE"/>
<path d="M191.347 0.737404C190.668 0.814453 189.794 0.816433 188.789 0.713947C189.49 0.627088 190.322 0.64472 191.347 0.737404Z" fill="#8348AE"/>
<path d="M30.9797 73.0996C30.7088 73.7053 30.2887 74.4026 29.7012 75.1714C29.966 74.559 30.3983 73.8751 30.9797 73.0996Z" fill="#8348AE"/>
<path d="M27.8036 271.698C28.3052 272.157 28.8431 272.794 29.394 273.622C28.8847 273.168 28.3624 272.522 27.8036 271.698Z" fill="#8449AF"/>
<path d="M26.0246 268.886C26.5116 269.401 27.0311 270.104 27.5638 271.007C27.0704 270.497 26.5637 269.785 26.0246 268.886Z" fill="#8449AF"/>
<path d="M10.0335 113.53C9.94083 114.081 9.73959 114.768 9.42047 115.545C9.51005 114.977 9.71745 114.322 10.0335 113.53Z" fill="#8449AF"/>
<path d="M33.7012 69.4783C33.4763 69.9731 33.0955 70.5459 32.5496 71.1887C32.7715 70.6912 33.1583 70.1238 33.7012 69.4783Z" fill="#8348AE"/>
<path d="M327.09 86.9801C326.685 86.4646 326.246 85.7684 325.781 84.8918C326.188 85.4074 326.622 86.1034 327.09 86.9801Z" fill="#8348AE"/>
<path d="M200.48 1.87776C200.125 1.95179 199.611 1.94133 198.999 1.83428C199.374 1.75623 199.848 1.77473 200.48 1.87776Z" fill="#8348AE"/>
<path d="M245.221 14.6047C244.596 14.4998 243.828 14.2494 242.915 13.8538C243.54 13.9588 244.309 14.2089 245.221 14.6047Z" fill="#8348AE"/>
<path d="M337.528 240.85C337.636 240.249 337.896 239.528 338.299 238.672C338.188 239.269 337.935 239.999 337.528 240.85Z" fill="#8348AE"/>
<path d="M150.483 1.64575C150.163 1.82478 149.667 1.96211 149.049 2.03168C149.387 1.84397 149.847 1.72401 150.483 1.64575Z" fill="#8348AE"/>
<path d="M336.637 106.341C336.284 105.858 335.935 105.179 335.596 104.302C335.95 104.784 336.295 105.465 336.637 106.341Z" fill="#8348AE"/>
<path d="M154.468 1.11963C154.141 1.27769 153.639 1.38827 153.019 1.42863C153.365 1.263 153.829 1.16757 154.468 1.11963Z" fill="#8348AE"/>
<path d="M331.171 255.189C331.251 254.733 331.472 254.151 331.843 253.451C331.766 253.911 331.54 254.487 331.171 255.189Z" fill="#8348AE"/>
<path d="M24.9189 267.152C25.2532 267.429 25.6084 267.882 25.9771 268.516C25.6403 268.24 25.2901 267.784 24.9189 267.152Z" fill="#8449AF"/>
<path d="M204.865 2.63632C204.408 2.69143 203.797 2.63948 203.035 2.48028C203.493 2.42509 204.102 2.47718 204.865 2.63632Z" fill="#8348AE"/>
<path d="M197.122 1.35373C196.763 1.43034 196.277 1.43086 195.666 1.34234C196.026 1.26141 196.51 1.26952 197.122 1.35373Z" fill="#8348AE"/>
<path d="M275.62 31.3199C275.222 31.1919 274.734 30.9189 274.157 30.4985C274.555 30.6258 275.043 30.9004 275.62 31.3199Z" fill="#8348AE"/>
<path d="M32.2689 277.978C32.6201 278.223 33.0031 278.638 33.4111 279.229C33.0576 278.987 32.6791 278.568 32.2689 277.978Z" fill="#8449AF"/>
<path d="M143.115 2.89966C142.934 3.0293 142.605 3.1149 142.185 3.14154C142.384 3.00692 142.676 2.93127 143.115 2.89966Z" fill="#8348AE"/>
<path d="M215.304 4.72883C215.09 4.8024 214.746 4.79238 214.33 4.69638C214.563 4.62203 214.868 4.63363 215.304 4.72883Z" fill="#8348AE"/>
<path d="M146.529 2.31738C146.348 2.45102 146.019 2.54092 145.598 2.57163C145.797 2.43284 146.089 2.35324 146.529 2.31738Z" fill="#8348AE"/>
<path d="M344.747 132.621C344.574 132.398 344.439 132.027 344.339 131.507C344.511 131.729 344.648 132.101 344.747 132.621Z" fill="#8348AE"/>
<path d="M7.79668 120.349C7.82675 120.549 7.77387 120.872 7.63375 121.26C7.60223 121.04 7.65797 120.756 7.79668 120.349Z" fill="#8449AF"/>
<path d="M35.1957 281.932C35.4711 282.081 35.7802 282.398 36.1284 282.881C35.8548 282.732 35.5421 282.415 35.1957 281.932Z" fill="#8449AF"/>
<path d="M345.328 135.469C345.188 135.291 345.088 134.963 345.044 134.541C345.19 134.737 345.278 135.028 345.328 135.469Z" fill="#8348AE"/>
<path d="M347.436 203.103C347.368 202.914 347.371 202.601 347.441 202.211C347.508 202.417 347.508 202.698 347.436 203.103Z" fill="#8348AE"/>
<path d="M122.605 7.90942C122.359 8.09244 121.944 8.26094 121.355 8.40033C121.6 8.21244 122.018 8.05367 122.605 7.90942Z" fill="#8348AE"/>
<path d="M32.0374 71.6521C31.9428 71.9573 31.6967 72.3648 31.3002 72.8728C31.3951 72.567 31.6406 72.1607 32.0374 71.6521Z" fill="#8348AE"/>
<path d="M135.146 4.50439C134.974 4.65161 134.649 4.76883 134.226 4.83086C134.416 4.67526 134.705 4.57484 135.146 4.50439Z" fill="#8348AE"/>
<path d="M23.8289 265.435C24.0951 265.617 24.3825 265.974 24.6928 266.508C24.4272 266.327 24.1387 265.968 23.8289 265.435Z" fill="#8449AF"/>
<path d="M82.1585 25.9973C81.9794 26.2261 81.6387 26.482 81.1385 26.7782C81.3183 26.5539 81.6575 26.2892 82.1585 25.9973Z" fill="#8348AE"/>
<path d="M273.711 30.0815C273.402 29.9955 272.987 29.76 272.466 29.3772C272.776 29.464 273.191 29.698 273.711 30.0815Z" fill="#8348AE"/>
<path d="M209.619 3.55936C209.404 3.63013 209.056 3.61735 208.639 3.51422C208.875 3.44119 209.181 3.45849 209.619 3.55936Z" fill="#8348AE"/>
<path d="M220.854 6.06895C220.555 6.11708 220.166 6.05943 219.605 5.90214C219.876 5.85605 220.32 5.90961 220.854 6.06895Z" fill="#8348AE"/>
<path d="M137.425 4.01221C137.25 4.14902 136.924 4.25081 136.504 4.29668C136.698 4.15291 136.987 4.06506 137.425 4.01221Z" fill="#8348AE"/>
<path d="M41.7816 59.4353C41.756 59.6406 41.5745 59.9123 41.2461 60.2634C41.2746 60.0625 41.4501 59.782 41.7816 59.4353Z" fill="#8348AE"/>
<path d="M337.276 109.371C337.206 109.226 337.236 109.089 337.328 108.75C337.529 108.749 337.67 108.95 337.795 109.278C337.645 109.397 337.511 109.388 337.276 109.371Z" fill="#8348AE"/>
<path d="M98.6057 17.1145C98.4951 17.2869 98.2095 17.4597 97.7556 17.6521C97.8685 17.4862 98.1495 17.3005 98.6057 17.1145Z" fill="#8348AE"/>
<path d="M97.4427 17.6621C97.3333 17.8406 97.0449 18.0292 96.5835 18.2433C96.6949 18.0699 96.9792 17.8711 97.4427 17.6621Z" fill="#8348AE"/>
<path d="M95.18 18.8098C95.0744 18.9877 94.7915 19.1793 94.337 19.3979C94.4445 19.2244 94.7236 19.024 95.18 18.8098Z" fill="#8348AE"/>
<path d="M207.316 3.07744C207.179 3.1585 206.863 3.15578 206.452 3.07096C206.618 2.99046 206.878 2.99207 207.316 3.07744Z" fill="#8348AE"/>
<path d="M287.391 309.761C287.377 309.652 287.525 309.49 287.822 309.258C287.833 309.361 287.693 309.534 287.391 309.761Z" fill="#8348AE"/>
<path d="M106.047 13.8508C106.027 13.9595 105.834 14.0653 105.477 14.1985C105.5 14.0998 105.687 13.9739 106.047 13.8508Z" fill="#8348AE"/>
<path d="M322.658 269.947C322.607 269.847 322.696 269.663 322.897 269.374C322.939 269.467 322.868 269.665 322.658 269.947Z" fill="#8449AF"/>
<path d="M120.25 8.64233C120.219 8.74931 120.001 8.84996 119.602 8.97571C119.635 8.87922 119.848 8.75762 120.25 8.64233Z" fill="#8348AE"/>
<path d="M104.891 14.3301C104.869 14.4396 104.661 14.5576 104.275 14.7142C104.3 14.6147 104.502 14.4767 104.891 14.3301Z" fill="#8348AE"/>
<path d="M246.46 15.1707C246.361 15.2326 246.133 15.1596 245.761 14.9811C245.854 14.9289 246.092 14.9823 246.46 15.1707Z" fill="#8348AE"/>
<path d="M5.53027 221.616C5.6831 221.572 5.74309 221.711 5.68522 221.957C5.60558 221.94 5.56227 221.852 5.53027 221.616Z" fill="#8449AF"/>
<path d="M139.641 3.53442C139.682 3.69334 139.54 3.74969 139.292 3.68026C139.312 3.59921 139.402 3.55835 139.641 3.53442Z" fill="#8348AE"/>
<path d="M223.866 6.96159C223.999 7.03339 223.768 7.10786 223.768 7.10786C223.768 7.10786 223.535 7.03866 223.484 6.97356C223.533 6.90224 223.633 6.89602 223.866 6.96159Z" fill="#8348AE"/>
<path d="M343.477 128.017C343.388 128.041 343.342 127.908 343.349 127.69C343.358 127.619 343.477 127.876 343.477 128.017Z" fill="#8348AE"/>
<path d="M8.75099 117.678C8.80268 117.79 8.68843 117.99 8.47903 118.333C8.45094 118.24 8.518 118.003 8.75099 117.678Z" fill="#8449AF"/>
<path d="M29.2461 75.6135C29.2629 75.7017 29.1312 75.8968 28.8889 76.2284C28.8848 76.15 28.9912 75.9352 29.2461 75.6135Z" fill="#8348AE"/>
<path d="M338.368 110.952C338.279 110.982 338.223 110.85 338.212 110.629C338.264 110.64 338.312 110.724 338.368 110.952Z" fill="#8348AE"/>
<path d="M217.573 5.26843C217.6 5.32834 217.398 5.35449 217.361 5.31588C217.324 5.27727 217.546 5.20851 217.573 5.26843Z" fill="#8348AE"/>
<path d="M218.566 5.51581C218.479 5.58972 218.25 5.55026 217.867 5.42946C217.949 5.36623 218.186 5.38433 218.566 5.51581Z" fill="#8348AE"/>
<path d="M337.271 108.052C337.164 108.023 337.059 107.805 336.928 107.405C337.026 107.436 337.149 107.65 337.271 108.052Z" fill="#8348AE"/>
<path d="M222.075 6.41681C222.092 6.48461 221.883 6.47435 221.788 6.42883C221.796 6.26147 221.918 6.25003 222.075 6.41681Z" fill="#8348AE"/>
<path d="M77.1721 197.154C83.38 189.839 90.8799 184.483 99.1756 180.187C101.777 178.839 104.449 177.628 107.211 176.213C113.939 174.075 120.486 171.85 127.165 170.139C136.174 167.831 145.426 166.838 154.692 166.346C162.913 165.91 171.161 166.018 179.391 165.71C187.24 165.417 195.085 164.952 202.924 164.45C205.768 164.268 206.806 163.808 207.074 160.629C207.351 157.325 209.321 154.867 212.598 153.378C212.71 153.214 212.642 153.167 212.835 153.238C213.462 153.229 213.896 153.148 214.33 153.067C215.498 153.121 216.666 153.175 218.223 153.343C220.6 154.246 222.313 155.445 223.199 157.415C224.462 160.22 225.628 160.042 227.953 159.23C231.227 158.087 234.423 156.706 237.594 155.293C238.537 154.873 239.283 154.008 240.195 153.286C239.638 152.265 239.242 151.54 238.846 150.815C238.846 150.815 238.766 150.868 238.819 150.647C238.835 148.681 238.796 146.936 238.758 145.191C238.758 145.191 238.864 145.091 238.978 144.883C239.235 144.293 239.379 143.911 239.523 143.528C240.002 142.953 240.459 142.358 240.964 141.807C244.017 138.48 248.138 137.975 251.93 140.453C252.561 140.865 253.167 141.318 253.813 141.704C255.134 142.493 256.493 142.519 257.851 141.79C258.349 141.523 258.853 141.255 259.308 140.924C262.807 138.378 267.424 139.327 269.827 141.388C272.92 144.041 273.779 147.423 272.299 151.613C272.173 151.968 272.017 152.312 271.848 152.866C265.286 160.276 257.606 165.96 248.907 170.278C246.207 171.618 243.47 172.882 240.555 174.288C230.971 177.701 221.433 180.424 211.555 181.838C202.267 183.167 192.931 183.931 183.55 184.091C175.22 184.233 166.886 184.213 158.56 184.479C154.216 184.618 149.883 185.194 145.552 185.631C144.641 185.722 143.755 186.069 142.763 186.322C142.608 190.123 141.551 193.36 138.246 195.662C135.234 196.787 132.322 197.298 129.09 195.681C127.695 194.145 126.485 192.942 125.525 191.565C124.703 190.385 123.84 189.879 122.434 190.34C118.211 191.724 113.974 193.067 110.195 195.501C109.049 195.988 109.019 196.715 109.533 197.768C110.601 199.955 110.904 202.245 110.223 204.647C108.687 210.067 102.264 212.643 97.448 209.739C97.3672 209.69 97.2784 209.648 97.2121 209.583C94.8167 207.243 92.4803 207.455 89.5803 209.036C84.0568 212.046 77.5801 209.144 76.291 203.441C75.8089 201.308 76.3215 199.323 77.1721 197.154Z" fill="#FCFBFB"/>
<path d="M139.175 263.855C139.933 262.002 140.653 260.351 141.524 258.784C142.909 256.292 142.963 256.004 140.922 253.883C139.018 251.905 137.003 250.035 135.046 248.108C132.009 245.118 128.981 242.119 125.773 239.032C125.598 238.939 125.511 239.036 125.526 238.908C125.365 238.625 125.19 238.47 125.015 238.315C124.226 237.509 123.414 236.724 122.651 235.894C119.344 232.295 119.498 226.756 122.849 223.315C125.473 220.621 131.511 219.514 135.188 223.19C140.405 228.404 145.675 233.565 150.93 238.741C151.717 239.515 152.548 240.244 153.623 241.24C154.49 239.714 155.279 238.556 155.836 237.296C157.017 234.621 158.069 231.889 159.191 229.187C159.761 227.815 159.586 226.718 158.423 225.643C156.064 223.462 153.823 221.154 151.37 218.827C150.662 218.102 150.09 217.469 149.578 216.792C146.776 213.089 147.097 208.144 150.335 204.88C153.633 201.556 157.901 201.351 161.866 204.344C162.986 205.19 164.074 206.076 165.243 206.995C166.117 206.452 166.825 206.012 167.534 205.574C173.323 201.994 180.054 205.178 180.821 211.972C181.051 214.016 180.753 216.121 180.727 218.455C180.224 221.096 179.841 223.523 179.129 225.851C177.755 230.346 176.195 234.785 174.693 239.442C171.343 247.318 167.112 254.497 162.45 261.675C159.914 264.839 157.584 267.929 154.962 270.748C151.171 274.826 145.117 274.771 141.4 270.865C139.578 268.95 139.023 266.648 139.175 263.855Z" fill="#FCFBFB"/>
<path d="M110.298 195.71C113.974 193.067 118.211 191.724 122.434 190.34C123.84 189.879 124.703 190.385 125.525 191.565C126.485 192.942 127.695 194.145 128.892 195.58C128.433 196.828 127.429 196.987 126.36 196.987C121.857 196.989 117.354 197.037 112.854 196.934C112.029 196.916 111.218 196.274 110.298 195.71Z" fill="#9B58D0"/>
<path d="M210.116 87.6263C209.327 89.1837 208.608 90.5014 207.806 91.7663C206.508 93.8141 206.492 94.0254 208.15 95.8869C208.775 96.5885 209.455 97.2424 210.119 97.9077C214.043 101.833 217.969 105.756 222.051 109.755C223.773 111.469 225.429 113.03 226.883 114.761C229.365 117.713 229.534 121.767 227.477 125.071C225.317 128.542 221.913 130.025 218.031 129.249C215.868 128.816 214.322 127.445 212.837 125.977C207.928 121.128 203.039 116.259 198.133 111.408C197.416 110.699 196.644 110.046 195.709 109.196C192.911 113.283 191.063 117.474 189.664 121.893C189.299 123.045 190.009 123.693 190.652 124.349C192.967 126.711 195.322 129.035 197.667 131.368C198.336 132.035 199.024 132.683 199.87 133.452C200.477 135.195 201.19 136.807 201.303 138.459C201.552 142.089 199.951 144.931 196.718 146.622C193.518 148.295 190.314 148.07 187.329 145.967C186.185 145.162 185.112 144.256 183.967 143.365C182.995 143.939 182.203 144.445 181.377 144.887C175.501 148.034 168.733 144.342 168.278 137.683C168.157 135.899 168.382 134.092 168.424 132.051C168.399 131.806 168.492 131.783 168.562 131.682C168.708 131.463 168.711 131.343 168.643 131.221C170.233 123.897 171.966 116.616 175.052 109.513C175.782 107.969 176.44 106.615 177.192 105.316C180.17 100.173 183.177 95.0478 186.209 89.7465C189.107 86.1696 191.91 82.7102 194.85 79.3713C197.174 76.7323 200.234 75.7927 203.62 76.6124C206.894 77.405 209.157 79.567 209.991 82.8597C210.352 84.2827 210.115 85.8572 210.116 87.6263Z" fill="#FCFBFB"/>
<path d="M238.828 151.047C239.242 151.54 239.638 152.265 240.195 153.286C239.283 154.007 238.537 154.873 237.594 155.293C234.423 156.705 231.227 158.087 227.953 159.23C225.628 160.042 224.462 160.22 223.199 157.414C222.313 155.445 220.6 154.246 218.474 153.325C224.091 153.191 229.848 153.199 235.605 153.183C237.025 153.178 238.566 153.299 238.828 151.047Z" fill="#864BAF"/>
<path d="M238.688 145.407C238.796 146.936 238.835 148.681 238.846 150.687C238.752 149.173 238.684 147.398 238.688 145.407Z" fill="#864BAF"/>
<path d="M214.183 153.021C213.896 153.148 213.462 153.229 212.81 153.27C213.073 153.146 213.554 153.061 214.183 153.021Z" fill="#8549B0"/>
<path d="M239.425 143.703C239.379 143.911 239.235 144.293 238.942 144.82C238.971 144.602 239.149 144.24 239.425 143.703Z" fill="#864BAF"/>
<path d="M168.588 131.287C168.711 131.343 168.708 131.463 168.555 131.634C168.454 131.569 168.472 131.457 168.588 131.287Z" fill="#9A56D0"/>
<path d="M125.125 238.441C125.19 238.47 125.365 238.625 125.571 238.955C125.479 238.942 125.358 238.755 125.125 238.441Z" fill="#8449AF"/>
</svg>
